<svg class="svg-icon" xmlns="http://www.w3.org/2000/svg" xmlns:xlink="http://www.w3.org/1999/xlink"
          clip-rule="evenodd" fill-rule="evenodd" image-rendering="optimizeQuality" preserveAspectRatio="xMidYMid meet"
          shape-rendering="geometricPrecision" text-rendering="geometricPrecision" version="1.0"
          viewBox="0.0 0.0 8435.0 6696.0" zoomAndPan="magnify" style="fill: rgb(0, 0, 0)" original_string_length="5744">
          <g fill-rule="nonzero" id="__id205_s45y0wrsxg" style="fill: rgb(0, 0, 0)">
            <path
              d="M7463 1191c0,181 -147,328 -328,328 -182,0 -328,-147 -328,-328 0,-181 146,-328 328,-328 181,0 328,147 328,328z"
              style="fill: inherit" />
            <path
              d="M6490 1191c0,181 -146,328 -328,328 -181,0 -328,-147 -328,-328 0,-181 147,-328 328,-328 182,0 328,147 328,328z"
              style="fill: inherit" />
            <path
              d="M5518 1191c0,181 -147,328 -328,328 -181,0 -328,-147 -328,-328 0,-181 147,-328 328,-328 181,0 328,147 328,328z"
              style="fill: inherit" />
            <path
              d="M4546 1191c0,181 -147,328 -328,328 -182,0 -329,-147 -329,-328 0,-181 147,-328 329,-328 181,0 328,147 328,328z"
              style="fill: inherit" />
            <path
              d="M3573 1191c0,181 -147,328 -328,328 -181,0 -328,-147 -328,-328 0,-181 147,-328 328,-328 181,0 328,147 328,328z"
              style="fill: inherit" />
            <path
              d="M2601 1191c0,181 -147,328 -328,328 -181,0 -328,-147 -328,-328 0,-181 147,-328 328,-328 181,0 328,147 328,328z"
              style="fill: inherit" />
            <path
              d="M1629 1191c0,181 -147,328 -329,328 -181,0 -328,-147 -328,-328 0,-181 147,-328 328,-328 182,0 329,147 329,328z"
              style="fill: inherit" />
            <path
              d="M8435 1191c0,181 -147,328 -328,328 -181,0 -328,-147 -328,-328 0,-181 147,-328 328,-328 181,0 328,147 328,328z"
              style="fill: inherit" />
            <path
              d="M7463 2054c0,181 -147,328 -328,328 -182,0 -328,-147 -328,-328 0,-181 146,-328 328,-328 181,0 328,147 328,328z"
              style="fill: inherit" />
            <path
              d="M6490 2054c0,181 -146,328 -328,328 -181,0 -328,-147 -328,-328 0,-181 147,-328 328,-328 182,0 328,147 328,328z"
              style="fill: inherit" />
            <path
              d="M5518 2054c0,181 -147,328 -328,328 -181,0 -328,-147 -328,-328 0,-181 147,-328 328,-328 181,0 328,147 328,328z"
              style="fill: inherit" />
            <path
              d="M4546 2054c0,181 -147,328 -328,328 -182,0 -329,-147 -329,-328 0,-181 147,-328 329,-328 181,0 328,147 328,328z"
              style="fill: inherit" />
            <path
              d="M3573 2054c0,181 -147,328 -328,328 -181,0 -328,-147 -328,-328 0,-181 147,-328 328,-328 181,0 328,147 328,328z"
              style="fill: inherit" />
            <path
              d="M1629 2054c0,181 -147,328 -329,328 -181,0 -328,-147 -328,-328 0,-181 147,-328 328,-328 182,0 329,147 329,328z"
              style="fill: inherit" />
            <path
              d="M8435 2054c0,181 -147,328 -328,328 -181,0 -328,-147 -328,-328 0,-181 147,-328 328,-328 181,0 328,147 328,328z"
              style="fill: inherit" />
            <path
              d="M7463 2917c0,181 -147,328 -328,328 -182,0 -328,-147 -328,-328 0,-181 146,-328 328,-328 181,0 328,147 328,328z"
              style="fill: inherit" />
            <path
              d="M6490 2917c0,181 -146,328 -328,328 -181,0 -328,-147 -328,-328 0,-181 147,-328 328,-328 182,0 328,147 328,328z"
              style="fill: inherit" />
            <path
              d="M5518 2917c0,181 -147,328 -328,328 -181,0 -328,-147 -328,-328 0,-181 147,-328 328,-328 181,0 328,147 328,328z"
              style="fill: inherit" />
            <path
              d="M4546 2917c0,181 -147,328 -328,328 -182,0 -329,-147 -329,-328 0,-181 147,-328 329,-328 181,0 328,147 328,328z"
              style="fill: inherit" />
            <path
              d="M3573 2917c0,181 -147,328 -328,328 -181,0 -328,-147 -328,-328 0,-181 147,-328 328,-328 181,0 328,147 328,328z"
              style="fill: inherit" />
            <path
              d="M8435 2917c0,181 -147,328 -328,328 -181,0 -328,-147 -328,-328 0,-181 147,-328 328,-328 181,0 328,147 328,328z"
              style="fill: inherit" />
            <path
              d="M7463 3780c0,181 -147,328 -328,328 -182,0 -328,-147 -328,-328 0,-182 146,-329 328,-329 181,0 328,147 328,329z"
              style="fill: inherit" />
            <path
              d="M6490 3780c0,181 -146,328 -328,328 -181,0 -328,-147 -328,-328 0,-182 147,-329 328,-329 182,0 328,147 328,329z"
              style="fill: inherit" />
            <path
              d="M5518 3780c0,181 -147,328 -328,328 -181,0 -328,-147 -328,-328 0,-182 147,-329 328,-329 181,0 328,147 328,329z"
              style="fill: inherit" />
            <path
              d="M4546 3780c0,181 -147,328 -328,328 -182,0 -329,-147 -329,-328 0,-182 147,-329 329,-329 181,0 328,147 328,329z"
              style="fill: inherit" />
            <path
              d="M8435 3780c0,181 -147,328 -328,328 -181,0 -328,-147 -328,-328 0,-182 147,-329 328,-329 181,0 328,147 328,329z"
              style="fill: inherit" />
            <path
              d="M7463 4642c0,182 -147,329 -328,329 -182,0 -328,-147 -328,-329 0,-181 146,-328 328,-328 181,0 328,147 328,328z"
              style="fill: inherit" />
            <path
              d="M5518 4642c0,182 -147,329 -328,329 -181,0 -328,-147 -328,-329 0,-181 147,-328 328,-328 181,0 328,147 328,328z"
              style="fill: inherit" />
            <path
              d="M8435 4642c0,182 -147,329 -328,329 -181,0 -328,-147 -328,-329 0,-181 147,-328 328,-328 181,0 328,147 328,328z"
              style="fill: inherit" />
            <path
              d="M7463 5505c0,182 -147,328 -328,328 -182,0 -328,-146 -328,-328 0,-181 146,-328 328,-328 181,0 328,147 328,328z"
              style="fill: inherit" />
            <path
              d="M8435 5505c0,182 -147,328 -328,328 -181,0 -328,-146 -328,-328 0,-181 147,-328 328,-328 181,0 328,147 328,328z"
              style="fill: inherit" />
            <path
              d="M8435 6368c0,182 -147,328 -328,328 -181,0 -328,-146 -328,-328 0,-181 147,-328 328,-328 181,0 328,147 328,328z"
              style="fill: inherit" />
            <path
              d="M7463 328c0,181 -147,328 -328,328 -182,0 -328,-147 -328,-328 0,-181 146,-328 328,-328 181,0 328,147 328,328z"
              style="fill: inherit" />
            <path
              d="M6490 328c0,181 -146,328 -328,328 -181,0 -328,-147 -328,-328 0,-181 147,-328 328,-328 182,0 328,147 328,328z"
              style="fill: inherit" />
            <path
              d="M5518 328c0,181 -147,328 -328,328 -181,0 -328,-147 -328,-328 0,-181 147,-328 328,-328 181,0 328,147 328,328z"
              style="fill: inherit" />
            <path
              d="M4546 328c0,181 -147,328 -328,328 -182,0 -329,-147 -329,-328 0,-181 147,-328 329,-328 181,0 328,147 328,328z"
              style="fill: inherit" />
            <path
              d="M3573 328c0,181 -147,328 -328,328 -181,0 -328,-147 -328,-328 0,-181 147,-328 328,-328 181,0 328,147 328,328z"
              style="fill: inherit" />
            <path
              d="M2601 328c0,181 -147,328 -328,328 -181,0 -328,-147 -328,-328 0,-181 147,-328 328,-328 181,0 328,147 328,328z"
              style="fill: inherit" />
            <path
              d="M1629 328c0,181 -147,328 -329,328 -181,0 -328,-147 -328,-328 0,-181 147,-328 328,-328 182,0 329,147 329,328z"
              style="fill: inherit" />
            <path
              d="M656 328c0,181 -147,328 -328,328 -181,0 -328,-147 -328,-328 0,-181 147,-328 328,-328 181,0 328,147 328,328z"
              style="fill: inherit" />
            <path
              d="M8435 328c0,181 -147,328 -328,328 -181,0 -328,-147 -328,-328 0,-181 147,-328 328,-328 181,0 328,147 328,328z"
              style="fill: inherit" />
          </g>
        </svg>